<svg xmlns="http://www.w3.org/2000/svg" viewBox="0 0 850 540" width="850" height="540">
  <defs>
    <linearGradient id="cardBg" x1="0%" y1="0%" x2="100%" y2="100%">
      <stop offset="0%" style="stop-color:#0f172a"/>
      <stop offset="100%" style="stop-color:#1e293b"/>
    </linearGradient>
    <linearGradient id="blueLine" x1="0%" y1="0%" x2="0%" y2="100%">
      <stop offset="0%" style="stop-color:#3b82f6"/>
      <stop offset="100%" style="stop-color:#1d4ed8"/>
    </linearGradient>
    <linearGradient id="iconBg" x1="0%" y1="0%" x2="100%" y2="100%">
      <stop offset="0%" style="stop-color:#1d4ed8"/>
      <stop offset="100%" style="stop-color:#2563eb"/>
    </linearGradient>
    <linearGradient id="decorGrad" x1="0%" y1="0%" x2="100%" y2="100%">
      <stop offset="0%" style="stop-color:#2563eb;stop-opacity:0.18"/>
      <stop offset="100%" style="stop-color:#3b82f6;stop-opacity:0.04"/>
    </linearGradient>
    <clipPath id="cardClip">
      <rect width="850" height="540" rx="22"/>
    </clipPath>
  </defs>

  <!-- ── Fundo ── -->
  <rect width="850" height="540" rx="22" fill="url(#cardBg)"/>

  <!-- ── Decoração: prédios abstratos canto direito ── -->
  <g clip-path="url(#cardClip)" opacity="1">
    <!-- Prédio fundo 1 -->
    <rect x="620" y="160" width="70" height="380" rx="4" fill="url(#decorGrad)"/>
    <!-- Prédio fundo 2 -->
    <rect x="700" y="220" width="55" height="320" rx="4" fill="url(#decorGrad)"/>
    <!-- Prédio fundo 3 -->
    <rect x="762" y="130" width="88" height="410" rx="4" fill="url(#decorGrad)"/>
    <!-- Prédio frente -->
    <rect x="660" y="280" width="90" height="260" rx="4" fill="url(#decorGrad)"/>
    <!-- Janelas prédio 1 -->
    <rect x="630" y="190" width="12" height="10" rx="1" fill="#2563eb" fill-opacity="0.25"/>
    <rect x="648" y="190" width="12" height="10" rx="1" fill="#2563eb" fill-opacity="0.15"/>
    <rect x="630" y="210" width="12" height="10" rx="1" fill="#2563eb" fill-opacity="0.2"/>
    <rect x="648" y="210" width="12" height="10" rx="1" fill="#2563eb" fill-opacity="0.3"/>
    <rect x="630" y="230" width="12" height="10" rx="1" fill="#2563eb" fill-opacity="0.12"/>
    <rect x="648" y="230" width="12" height="10" rx="1" fill="#2563eb" fill-opacity="0.25"/>
    <!-- Janelas prédio 3 -->
    <rect x="774" y="150" width="14" height="11" rx="1" fill="#3b82f6" fill-opacity="0.2"/>
    <rect x="794" y="150" width="14" height="11" rx="1" fill="#3b82f6" fill-opacity="0.12"/>
    <rect x="774" y="172" width="14" height="11" rx="1" fill="#3b82f6" fill-opacity="0.28"/>
    <rect x="794" y="172" width="14" height="11" rx="1" fill="#3b82f6" fill-opacity="0.15"/>
    <rect x="774" y="194" width="14" height="11" rx="1" fill="#3b82f6" fill-opacity="0.1"/>
    <rect x="794" y="194" width="14" height="11" rx="1" fill="#3b82f6" fill-opacity="0.22"/>
    <!-- Linha de chão -->
    <line x1="600" y1="540" x2="850" y2="540" stroke="#2563eb" stroke-width="1" stroke-opacity="0.2"/>
  </g>

  <!-- ── Barra azul lateral esquerda ── -->
  <rect x="0" y="0" width="10" height="540" rx="0" fill="url(#blueLine)"/>
  <rect x="0" y="0" width="10" height="540" rx="0" fill="url(#blueLine)"/>
  <!-- Arredondamento só no lado esquerdo -->
  <rect x="0" y="0" width="22" height="540" rx="22" fill="url(#blueLine)"/>
  <rect x="10" y="0" width="12" height="540" fill="url(#cardBg)"/>

  <!-- ── Logo: ícone ── -->
  <rect x="46" y="54" width="68" height="68" rx="14" fill="url(#iconBg)"/>
  <!-- Prédio ícone -->
  <rect x="58" y="70" width="44" height="42" rx="2" fill="none" stroke="white" stroke-width="2.6"/>
  <line x1="58" y1="83" x2="102" y2="83" stroke="white" stroke-width="1.2" stroke-opacity="0.35"/>
  <line x1="58" y1="94" x2="102" y2="94" stroke="white" stroke-width="1.2" stroke-opacity="0.35"/>
  <!-- Janelas ícone -->
  <rect x="62" y="73" width="8" height="8" rx="1" fill="white" fill-opacity="0.95"/>
  <rect x="74" y="73" width="8" height="8" rx="1" fill="white" fill-opacity="0.55"/>
  <rect x="86" y="73" width="8" height="8" rx="1" fill="white" fill-opacity="0.8"/>
  <rect x="62" y="86" width="8" height="7" rx="1" fill="white" fill-opacity="0.5"/>
  <rect x="74" y="86" width="8" height="7" rx="1" fill="white" fill-opacity="0.9"/>
  <rect x="86" y="86" width="8" height="7" rx="1" fill="white" fill-opacity="0.4"/>
  <!-- Porta ícone -->
  <rect x="70" y="101" width="18" height="11" rx="1.5" fill="white" fill-opacity="0.85"/>

  <!-- ── Logo: texto ── -->
  <text x="128" y="96" font-family="Arial Black, Arial, sans-serif" font-size="30"
        font-weight="900" letter-spacing="-0.5">
    <tspan fill="white">Real</tspan><tspan fill="#93c5fd">Estate</tspan><tspan fill="#3b82f6">AI</tspan>
  </text>
  <text x="128" y="116" font-family="Arial, sans-serif" font-size="11" fill="#64748b"
        letter-spacing="1.2">INVESTIMENTO IMOBILIÁRIO COM IA</text>

  <!-- ── Divisor ── -->
  <line x1="46" y1="150" x2="580" y2="150" stroke="#1e3a8a" stroke-width="1"/>

  <!-- ── Nome ── -->
  <text x="46" y="220" font-family="Arial Black, Arial, sans-serif" font-size="36"
        font-weight="900" fill="white" letter-spacing="-0.5">Davidson Batista</text>

  <!-- ── Cargo ── -->
  <text x="46" y="256" font-family="Arial, sans-serif" font-size="15"
        fill="#3b82f6" font-weight="600" letter-spacing="0.8">Especialista em Investimento Imobiliário</text>

  <!-- ── Divisor fino ── -->
  <line x1="46" y1="282" x2="260" y2="282" stroke="#1e3a8a" stroke-width="1"/>

  <!-- ── Contatos ── -->
  <!-- Email -->
  <g transform="translate(46, 306)">
    <!-- Ícone email -->
    <rect width="20" height="14" rx="3" fill="none" stroke="#3b82f6" stroke-width="1.5"/>
    <polyline points="0,0 10,8 20,0" fill="none" stroke="#3b82f6" stroke-width="1.5"/>
    <text x="30" y="11" font-family="Arial, sans-serif" font-size="14" fill="#94a3b8">contato@realestateai.com.br</text>
  </g>

  <!-- WhatsApp -->
  <g transform="translate(46, 342)">
    <!-- Ícone WhatsApp simplificado -->
    <circle cx="10" cy="8" r="9" fill="none" stroke="#25d366" stroke-width="1.5"/>
    <path d="M6,8 Q6,4 10,4 Q14,4 14,8 Q14,11 12,12 L10,14 L8,12 Q6,11 6,8Z"
          fill="none" stroke="#25d366" stroke-width="1.3"/>
    <text x="30" y="13" font-family="Arial, sans-serif" font-size="14" fill="#94a3b8">+55 (11) 9 9999-9999</text>
  </g>

  <!-- Website -->
  <g transform="translate(46, 378)">
    <!-- Ícone globo simplificado -->
    <circle cx="10" cy="9" r="9" fill="none" stroke="#3b82f6" stroke-width="1.5"/>
    <ellipse cx="10" cy="9" rx="4.5" ry="9" fill="none" stroke="#3b82f6" stroke-width="1.2"/>
    <line x1="1" y1="9" x2="19" y2="9" stroke="#3b82f6" stroke-width="1.2"/>
    <text x="30" y="14" font-family="Arial, sans-serif" font-size="14" fill="#94a3b8">realestateai.com.br</text>
  </g>

  <!-- ── Linha inferior + tagline ── -->
  <line x1="46" y1="470" x2="804" y2="470" stroke="#1e3a8a" stroke-width="1"/>
  <text x="46" y="494" font-family="Arial, sans-serif" font-size="10.5"
        fill="#334155" letter-spacing="1.5">ENCONTRE IMÓVEIS QUE REALMENTE GERAM RENDA</text>

  <!-- ── QR Code placeholder ── -->
  <rect x="672" y="340" width="112" height="112" rx="10" fill="#0f172a" stroke="#1e3a8a" stroke-width="1.5"/>
  <rect x="680" y="348" width="96" height="96" rx="6" fill="#f8fafc"/>
  <!-- Simulação QR: cantos -->
  <rect x="684" y="352" width="24" height="24" rx="3" fill="#0f172a"/>
  <rect x="688" y="356" width="16" height="16" rx="1" fill="#f8fafc"/>
  <rect x="691" y="359" width="10" height="10" rx="0.5" fill="#0f172a"/>
  <rect x="748" y="352" width="24" height="24" rx="3" fill="#0f172a"/>
  <rect x="752" y="356" width="16" height="16" rx="1" fill="#f8fafc"/>
  <rect x="755" y="359" width="10" height="10" rx="0.5" fill="#0f172a"/>
  <rect x="684" y="416" width="24" height="24" rx="3" fill="#0f172a"/>
  <rect x="688" y="420" width="16" height="16" rx="1" fill="#f8fafc"/>
  <rect x="691" y="423" width="10" height="10" rx="0.5" fill="#0f172a"/>
  <!-- Módulos centrais QR simulados -->
  <rect x="714" y="352" width="5" height="5" rx="0.5" fill="#0f172a"/>
  <rect x="722" y="352" width="5" height="5" rx="0.5" fill="#0f172a"/>
  <rect x="730" y="356" width="5" height="5" rx="0.5" fill="#0f172a"/>
  <rect x="714" y="360" width="5" height="5" rx="0.5" fill="#0f172a"/>
  <rect x="725" y="364" width="5" height="5" rx="0.5" fill="#0f172a"/>
  <rect x="714" y="370" width="5" height="5" rx="0.5" fill="#0f172a"/>
  <rect x="722" y="368" width="5" height="5" rx="0.5" fill="#0f172a"/>
  <rect x="731" y="372" width="5" height="5" rx="0.5" fill="#0f172a"/>
  <rect x="716" y="378" width="5" height="5" rx="0.5" fill="#0f172a"/>
  <rect x="724" y="382" width="5" height="5" rx="0.5" fill="#0f172a"/>
  <rect x="714" y="388" width="5" height="5" rx="0.5" fill="#0f172a"/>
  <rect x="722" y="392" width="5" height="5" rx="0.5" fill="#0f172a"/>
  <rect x="730" y="386" width="5" height="5" rx="0.5" fill="#0f172a"/>
  <rect x="736" y="376" width="5" height="5" rx="0.5" fill="#0f172a"/>
  <rect x="736" y="392" width="5" height="5" rx="0.5" fill="#0f172a"/>
  <rect x="744" y="360" width="5" height="5" rx="0.5" fill="#0f172a"/>
  <rect x="744" y="372" width="5" height="5" rx="0.5" fill="#0f172a"/>
  <rect x="748" y="380" width="5" height="5" rx="0.5" fill="#0f172a"/>
  <rect x="714" y="400" width="5" height="5" rx="0.5" fill="#0f172a"/>
  <rect x="722" y="404" width="5" height="5" rx="0.5" fill="#0f172a"/>
  <rect x="730" y="400" width="5" height="5" rx="0.5" fill="#0f172a"/>
  <rect x="738" y="408" width="5" height="5" rx="0.5" fill="#0f172a"/>
  <rect x="748" y="400" width="5" height="5" rx="0.5" fill="#0f172a"/>
  <rect x="756" y="404" width="5" height="5" rx="0.5" fill="#0f172a"/>
  <rect x="714" y="416" width="5" height="5" rx="0.5" fill="#0f172a"/>
  <rect x="722" y="420" width="5" height="5" rx="0.5" fill="#0f172a"/>
  <rect x="730" y="416" width="5" height="5" rx="0.5" fill="#0f172a"/>
  <rect x="740" y="420" width="5" height="5" rx="0.5" fill="#0f172a"/>
  <rect x="750" y="416" width="5" height="5" rx="0.5" fill="#0f172a"/>
  <text x="728" y="460" font-family="Arial, sans-serif" font-size="8"
        fill="#64748b" text-anchor="middle">Escanear</text>
</svg>
